<svg xmlns="http://www.w3.org/2000/svg" width="14" height="16" viewBox="0 0 14 16">
    <path fill="#999" d="M11.17 3.337l-.759.975c1.636 1.273 2.452 3.333 2.13 5.378-.487 3.098-3.404 5.222-6.502 4.734-3.097-.488-5.221-3.405-4.734-6.502.236-1.5 1.042-2.82 2.27-3.714 1.072-.78 2.354-1.155 3.66-1.081l-1.068 1.12.792.756 1.686-1.77v.001l.756-.793-.792-.755L6.839 0l-.755.793 1.153 1.098c-1.568-.074-3.102.382-4.389 1.318C1.353 4.298.372 5.903.085 7.73c-.593 3.771 1.992 7.322 5.762 7.915.363.057.724.085 1.08.085 3.346 0 6.298-2.44 6.834-5.847.392-2.489-.601-4.996-2.591-6.545z"/>
</svg>
